<?xml version="1.0" encoding="utf-8"?>
<!-- Generator: Adobe Illustrator 22.1.0, SVG Export Plug-In . SVG Version: 6.00 Build 0)  -->
<svg version="1.1" id="Layer_1" xmlns="http://www.w3.org/2000/svg" xmlns:xlink="http://www.w3.org/1999/xlink" x="0px" y="0px"
	 width="544.2px" height="544.2px" viewBox="0 0 544.2 544.2" style="enable-background:new 0 0 544.2 544.2;" xml:space="preserve"
	>
<style type="text/css">
	.st0{fill:#AEB5B7;}
	.st1{fill:#FFFFFF;}
</style>
<path class="st0" d="M272.1,0C2.1,0,0,121.8,0,272.1s2.1,272.1,272.1,272.1s272.1-121.8,272.1-272.1S542.1,0,272.1,0z"/>
<g>
	<path class="st1" d="M437.7,256.3L437.7,256.3c-0.8-6.5-6.1-11.6-12.5-12.3h-7.4c-8.2,0-15.2-4.7-18.8-11.6
		c-0.8-1.7-1.3-3.6-1.7-5.3c-1.5-4.4-3.4-8.5-5.1-12.3c-0.9-1.3-1.7-3-2.3-4.7c-0.8-2.1-1.1-4.6-1.1-6.8c0-5.7,2.3-10.8,6.1-14.6
		l4.2-4.2c0,0,0.2,0,0.2-0.2c0,0,0-0.2,0.2-0.2c4.9-5.1,5.1-12.9,0.8-18.2c-3.2-4-6.6-7.6-10.3-11.2c-3.8-3.8-7.4-7-11.4-10.4
		c-4.9-4-11.8-4.2-16.9-0.4l-3,3l-2.8,2.8l-0.2-0.2c-6.1,6.1-15,7.6-22.4,4.6c-0.9-0.4-1.9-0.9-3-1.3c-4.7-2.3-9.7-4.4-14.8-6.1
		c-0.9-0.2-1.7-0.6-2.5-0.8c-2.5-0.9-4.7-2.5-6.8-4.6c-3.4-3.4-5.3-7.6-5.9-12c-0.2-1.7-0.2-3.6,0-5.1v-3.6
		c0-6.8-4.9-12.3-11.4-13.7c-0.8,0-1.5-0.2-2.3-0.2c-9.2-0.8-18.5-0.8-27.7,0c-0.8,0-1.5,0.2-2.3,0.2c-6.5,1.1-11.4,6.8-11.4,13.7
		v6.1c0,8.9-5.5,16.5-13.7,19.6c-0.6,0.2-0.9,0.4-1.5,0.6c-5.5,1.9-10.8,4.2-16.1,6.6l-1.1,0.6c-2.5,1.1-5.5,1.9-8.7,1.9
		c-5.7,0-10.8-2.3-14.6-6.1l-4.4-4.4c-4.7-4.7-12.2-5.3-17.7-1.5c-0.6,0.6-1.1,0.9-1.7,1.5c-3.6,3-6.8,6.1-10.3,9.5
		s-6.3,6.6-9.5,10.3c-0.6,0.6-0.9,1.1-1.5,1.9c-3.8,5.3-3.2,12.7,1.5,17.7l4.4,4.4c6.3,6.3,7.6,15.6,4.2,23.2
		c-0.2,0.4-0.4,0.9-0.8,1.3c-2.5,5.1-4.7,10.4-6.6,15.9l-0.6,1.7c-0.9,2.5-2.5,5.1-4.7,7.2c-4.2,4.2-9.3,6.1-14.6,6.1h-6.5
		c-6.8,0-12.3,4.9-13.7,11.4c0,0.8-0.2,1.5-0.2,2.3c-0.4,4.6-0.6,9.3-0.6,13.9v0.4c0,4.6,0.2,9.1,0.6,13.7c0,0.8,0.2,1.5,0.2,2.3
		c1.1,6.5,6.8,11.4,13.7,11.4h6.1c8.9,0,16.3,5.5,19.4,13.5c0.2,0.6,0.4,0.9,0.6,1.5c1.7,5.5,4.2,10.8,6.6,16.1l0.6,1.1
		c1.1,2.5,1.9,5.5,1.9,8.7c0,5.7-2.3,10.8-6.1,14.8l-4.2,4.2c0,0-0.2,0-0.2,0.2l-0.2,0.2c-4.6,4.7-5.1,12-1.5,17.3
		c0.6,0.8,1.1,1.3,1.7,2.1c3,3.6,6.1,6.8,9.3,10.1s6.6,6.3,10.1,9.3c0.8,0.6,1.3,1.1,2.1,1.7c4.7,3.2,11.2,3.2,15.9-0.4l3-3l2.8-2.8
		l0.2,0.2c6.3-6.3,15.6-7.6,23.2-4.2l1.1,0.6c5.1,2.5,10.6,4.9,16.1,6.6c0.4,0.2,0.9,0.4,1.3,0.4c2.8,0.9,5.3,2.5,7.4,4.7
		c4.2,4.2,6.1,9.3,6.1,14.6v6.1c0,7,5.5,12.9,12.3,13.9c5.1,0.4,10.1,0.8,15.2,0.8s10.3-0.2,15.2-0.8c6.8-0.8,12.3-6.6,12.3-13.9
		v-6.1c0-8.4,4.9-15.6,12-19c1.3-0.6,3-1.1,4.6-1.5c4.6-1.5,9.1-3.4,13.3-5.5c1.1-0.8,2.5-1.5,4-1.9c2.1-0.8,4.7-1.3,7.2-1.3
		c5.3,0,10.1,1.9,13.9,5.3l1.7,1.7l3.6,3.6c4.9,4.9,12.3,5.3,17.8,1.3c0.4-0.4,0.9-0.8,1.3-1.1c3.6-3.2,7-6.3,10.4-9.7
		s6.5-6.8,9.7-10.4c0.4-0.4,0.8-0.9,1.1-1.3c3.8-5.1,3.6-12.3-0.9-17.3l-0.9-0.9l-4-4c-6.1-6.1-7.6-15.4-4.4-22.8
		c0.4-0.8,0.6-1.3,0.9-2.1c2.3-4.9,4.6-10.3,6.5-15.6c0.2-0.8,0.4-1.3,0.8-2.1c0.9-2.5,2.5-4.9,4.7-7c4.2-4.2,9.3-6.1,14.6-6.1h5.9
		c7.4,0,13.5-5.9,13.9-13.3h0.2c0.4-4.7,0.6-9.7,0.6-14.6C438.6,266.6,438.3,261.5,437.7,256.3z M335.2,293.4
		c-0.8,2.5-1.9,5.1-3.2,7.4c-3.2,6.6-7.4,12.5-12.7,17.8c-5.1,5.1-11.2,9.5-17.8,12.7c-2.3,1.1-4.9,2.3-7.6,3.2
		c-6.6,2.3-14.1,3.6-21.6,3.8h-0.2c-7.4,0-14.8-1.1-21.5-3.6c-2.8-0.9-5.3-1.9-7.8-3.2c-6.6-3.2-12.5-7.4-17.7-12.5
		c-5.1-5.1-9.5-11.2-12.7-17.7c-1.1-2.5-2.3-5.1-3.2-7.8c-2.3-6.6-3.6-14.1-3.6-21.5s1.1-15,3.6-21.8c0.9-2.8,1.9-5.3,3.2-7.8
		c3.4-6.6,7.6-12.5,12.7-17.7c5.1-5.1,11.2-9.5,17.8-12.7c2.5-1.1,5.1-2.3,7.6-3.2c6.6-2.3,14.1-3.6,21.5-3.6h0.2
		c7.4,0,14.8,1.3,21.6,3.8c2.5,0.9,5.1,1.9,7.4,3.2c6.6,3.4,12.5,7.6,17.8,12.7c5.1,5.1,9.5,11.2,12.5,17.7c1.1,2.5,2.3,4.9,3.2,7.6
		c2.5,6.6,4,14.1,4,21.5S337.6,286.5,335.2,293.4z"/>
</g>
</svg>
