<?xml version="1.0" encoding="utf-8"?>
<!-- Generator: Adobe Illustrator 22.1.0, SVG Export Plug-In . SVG Version: 6.00 Build 0)  -->
<svg version="1.1" id="Layer_1" xmlns="http://www.w3.org/2000/svg" xmlns:xlink="http://www.w3.org/1999/xlink" x="0px" y="0px"
	 width="305.7px" height="232.5px" viewBox="0 0 305.7 232.5" style="enable-background:new 0 0 305.7 232.5;" xml:space="preserve"
	>
<g>
	<path d="M23.2,46.4h92.3h141h26l0,0c12.8,0,23.2-10.4,23.2-23.2S295.3,0,282.5,0h-26H120.4H23.2C10.4,0,0,10.4,0,23.2
		S10.4,46.4,23.2,46.4z"/>
	<path d="M282.5,186.1h-92.3h-141h-26l0,0C10.4,186.1,0,196.5,0,209.3c0,12.8,10.4,23.2,23.2,23.2h26h136.1h97.2
		c12.8,0,23.2-10.4,23.2-23.2S295.3,186.1,282.5,186.1z"/>
	<path d="M282.5,93.1H49.2l0,0h-26C10.4,93.1,0,103.5,0,116.3c0,12.8,10.4,23.2,23.2,23.2h233.3l0,0h26c12.8,0,23.2-10.4,23.2-23.2
		C305.7,103.4,295.3,93.1,282.5,93.1z"/>
</g>
</svg>
