<?xml version="1.0" encoding="utf-8"?>
<svg version="1.1" id="Layer_1" xmlns="http://www.w3.org/2000/svg" xmlns:xlink="http://www.w3.org/1999/xlink" x="0px" y="0px"
	 width="544.2px" height="544.2px" viewBox="0 0 544.2 544.2" style="enable-background:new 0 0 544.2 544.2;" xml:space="preserve"
	>
<path style="fill:#5E5378;" d="M272.1,0C2.1,0,0,121.8,0,272.1s2.1,272.1,272.1,272.1s272.1-121.8,272.1-272.1S542.1,0,272.1,0z"/>
<g>
	<path style="fill:#FFFFFF;" d="M142.1,204.7h92.3h141h26v0c12.8,0,23.2-10.4,23.2-23.2c0-12.8-10.4-23.2-23.2-23.2h-26H239.3h-97.2
		c-12.8,0-23.2,10.4-23.2,23.2S129.3,204.7,142.1,204.7z"/>
	<path style="fill:#FFFFFF;" d="M401.4,344.4h-92.3h-141h-26v0c-12.8,0-23.2,10.4-23.2,23.2c0,12.8,10.4,23.2,23.2,23.2h26h136.1h97.2
		c12.8,0,23.2-10.4,23.2-23.2S414.2,344.4,401.4,344.4z"/>
	<path style="fill:#FFFFFF;" d="M401.4,251.4H168.1v0h-26c-12.8,0-23.2,10.4-23.2,23.2c0,12.8,10.4,23.2,23.2,23.2h233.3v0h26
		c12.8,0,23.2-10.4,23.2-23.2C424.6,261.7,414.2,251.4,401.4,251.4z"/>
</g>
</svg>
